<svg xmlns="http://www.w3.org/2000/svg" viewBox="0 0 350 50"><defs><style>.cls-1{fill:#f1f1f1;}</style></defs><title>icons-project</title><path class="cls-1" d="M125,4a21,21,0,1,0,21,21A21,21,0,0,0,125,4Zm-12.25,9h6v6h-6Zm6,24.27h-6V36h1.31V34.34h-1.31V32.91H116V31.28h-3.24V30h1.31V28.34h-1.31V26.89H116V25.26h-3.24V23.91h1.31V22.28h-1.31V20.81h6ZM137,19H120.58V13h1.29v1.31h1.63V13h1.43v3.24h1.63V13h1.3v1.31h1.63V13H131v3.24h1.63V13h1.34v1.31h1.63V13H137Z"/><path class="cls-1" d="M75.41,50h49.18A25,25,0,0,1,100,25,25,25,0,0,1,75.41,50Z"/><path class="cls-1" d="M69.74,23.19h0a6.49,6.49,0,1,0,6.45,7.15A9,9,0,0,1,69.74,23.19Z"/><circle class="cls-1" cx="65.38" cy="19.25" r="2.38"/><path class="cls-1" d="M70.76,23.28a8,8,0,0,0,5.42,6A6.49,6.49,0,0,0,70.76,23.28Z"/><path class="cls-1" d="M75,4A21,21,0,1,0,96,25,21,21,0,0,0,75,4ZM65.38,15.88A3.38,3.38,0,1,1,62,19.25,3.38,3.38,0,0,1,65.38,15.88ZM78.6,30.68a9,9,0,0,1-1.46-.13,7.48,7.48,0,1,1-7.52-8.36c0-.17,0-.34,0-.51a9,9,0,1,1,9,9Z"/><path class="cls-1" d="M78.6,13.69a8,8,0,0,0-8,8c0,.19,0,.38,0,.56a7.49,7.49,0,0,1,6.56,7.3A8,8,0,1,0,78.6,13.69Z"/><rect class="cls-1" x="-0.19" y="-0.02" width="23.19" height="50.01"/><ellipse class="cls-2" cx="87" cy="35.38" rx="0.75" ry="0.25"/><path class="cls-1" d="M27,0V50H74.59A25,25,0,1,1,100,25a25,25,0,0,1,50,0,25,25,0,0,1,50,0,25,25,0,0,1,50,0,25,25,0,1,1,25.41,25h74.48V0Z"/><polygon class="cls-1" points="215.91 29.95 224.38 34.97 224.38 25.18 215.91 20.33 215.91 29.95"/><path class="cls-1" d="M275,4a21,21,0,1,0,21,21A21,21,0,0,0,275,4Zm6.21,20L269.46,40.79l5.71-13h-6L281.29,10,276,23.83Z"/><path class="cls-1" d="M175.41,50h49.18A25,25,0,0,1,200,25,25,25,0,0,1,175.41,50Z"/><polygon class="cls-1" points="225.38 34.86 233.78 30 233.78 20.15 225.38 25.06 225.38 34.86"/><path class="cls-1" d="M225.41,50h49.18A25,25,0,0,1,250,25,25,25,0,0,1,225.41,50Z"/><path class="cls-1" d="M125.41,50h49.18A25,25,0,0,1,150,25,25,25,0,0,1,125.41,50Z"/><path class="cls-1" d="M225,4a21,21,0,1,0,21,21A21,21,0,0,0,225,4Zm9.78,26.57-10,5.79-9.86-5.85V19.18l10.19-6,9.67,5.8Z"/><polygon class="cls-1" points="216.41 19.46 224.77 24.26 233.29 19.27 225.1 14.36 216.41 19.46"/><path class="cls-1" d="M175,4a21,21,0,1,0,21,21A21,21,0,0,0,175,4Zm-2.85,31H162V29.25h10.15Zm7.93-.08H174v-1h5.05V26H163v1h-1V25h18.05Zm6,0h-4v-1h3V18H163v4.91h-1V17h24Z"/></svg>
