<?xml version="1.0" encoding="utf-8"?>
<!-- Generator: Adobe Illustrator 18.1.1, SVG Export Plug-In . SVG Version: 6.00 Build 0)  -->
<svg version="1.1" id="Layer_1" xmlns="http://www.w3.org/2000/svg" xmlns:xlink="http://www.w3.org/1999/xlink" x="0px" y="0px"
	 viewBox="0 0 2000 1099.9" enable-background="new 0 0 2000 1099.9" xml:space="preserve">
<path fill="none" stroke="#FFFFFF" stroke-miterlimit="10" d="M104,188.1l-7,3l-18.8,20.5l0.5,2.2l-4.2,6c0,0-1.5,2,1.2,4.5
	s18.5,18.8,18.5,18.8l-5.2,6c0,0,23.8,17.3,37.8,36l6.5-4.5l46,42.5c0,0,5.2,5.2,9.5,3s43.2-34.2,40.8-55.8s-18-22.3-18-22.3
	s-9.8,0.5-21,14c0,0-11.2-10.3-4-25l3.5,0.2l7.2-8.5l3.8,0.2l17.2-17l0.8-1.2l6.2-6.2v-2.2l4.5-0.5l18.5-18.5l2.5-8.2
	c0,0,5.2,5.8,9.2,3.5c4-2.2,21.8-20.5,21.8-20.5s-11.8,4.2-13.8,3.2s1.2-4.8,1.2-4.8s11-25.2,7.8-28.2c-3.2-3-31.7-32-31.7-32
	s-4.8-1.5-9.8,0.2s-18.8,7.5-18.8,7.5s-9,4.2-6.8-2.2s4.2-11,4.2-11s-1.5-2.2-4.8,1s-14.8,19-14.8,19s-1.8,5.5,0.5,9.2l-4.5,5.2
	l-4,0.8l-14.8,14l-2.8,7.2l-3.8,0.5l-6,6.2v2.8l-5-0.2L143,166.9l1.8,5.5l-1.2,2.8l-1,3.2l-6.5,4.8l0.2,3.5h-4l-5.3-4
	c0,0-4-1-5.8,1.2s-7,7.5-7,7.5L104,188.1z"/>
<path fill="none" stroke="#FFFFFF" stroke-miterlimit="10" d="M195.2,120.1c0,0,46.5,32,55.5,55"/>
<path fill="none" stroke="#FFFFFF" stroke-miterlimit="10" d="M169.5,147.1c0,0,46.5,32,55.5,55"/>
<path fill="none" stroke="#FFFFFF" stroke-miterlimit="10" d="M159.5,156.9c0,0,49.8,32.2,58.8,55.2"/>
<polyline fill="none" stroke="#FFFFFF" stroke-miterlimit="10" points="136.2,186.6 142,190.6 158,187.4 186.5,213.6 186.5,237.1 
	"/>
<path fill="none" stroke="#FFFFFF" stroke-miterlimit="10" d="M180.2,309.2l-27.8-25.9c-1.5-1.4-1.5-3.6-0.2-5.1L163,267
	c1.4-1.5,3.6-1.5,5.1-0.2l27.8,25.9c1.5,1.4,1.5,3.6,0.2,5.1L185.3,309C184,310.4,181.7,310.5,180.2,309.2z"/>
<ellipse fill="none" stroke="#FFFFFF" stroke-miterlimit="10" cx="96.2" cy="217.9" rx="12.6" ry="13.3"/>
<ellipse transform="matrix(0.9535 -0.3013 0.3013 0.9535 -69.0125 77.761)" fill="none" stroke="#FFFFFF" stroke-miterlimit="10" cx="217.6" cy="262.6" rx="4" ry="6.2"/>
<path fill="none" stroke="#FFFFFF" stroke-miterlimit="10" d="M111.2,231.7l13.5-5.8c0,0,19.5-26,28.3-30s9.8-4.2,9.8-4.2l20.2,18.5
	c0,0,2.2,7-3.2,12s-29.5,27.8-29.5,27.8l-4.2,14.8l-8-7l-11.8,6l-12.8-12.3l1.8-9.8l1.5-3.8L111.2,231.7z"/>
</svg>
