<?xml version="1.0" encoding="utf-8"?>
<!-- Generator: Adobe Illustrator 19.1.0, SVG Export Plug-In . SVG Version: 6.00 Build 0)  -->
<!DOCTYPE svg PUBLIC "-//W3C//DTD SVG 1.1//EN" "http://www.w3.org/Graphics/SVG/1.1/DTD/svg11.dtd">
<svg version="1.1" id="cups" xmlns="http://www.w3.org/2000/svg" xmlns:xlink="http://www.w3.org/1999/xlink" x="0px" y="0px"
	 viewBox="604 -243.9 2000 1099.9" style="enable-background:new 604 -243.9 2000 1099.9;" xml:space="preserve">
<style type="text/css">
	.st0{fill:none;stroke:#FFFFFF;stroke-miterlimit:10;}
</style>
<path class="st0" d="M2531.5,87.9c0,22.2-19.6,40.3-40,40.3s-41-18-41-40.3s19.6-40.3,40-40.3S2531.5,65.7,2531.5,87.9z"/>
<path class="st0" d="M2460.6,61.8c0,0-20.3,19.5-16.1,36s7,22.1,23.5,30.3c12.2,6.1,31.1-0.8,31.1-0.8"/>
<path class="st0" d="M2531.5,87.9l17,2.4c0,0,15.8,5.5,2.2,18.8l-26.2,0.9"/>
<path class="st0" d="M2529.3,100.6c0,0,18.2,0,21.4,8.5"/>
<path class="st0" d="M2421.3-25.3c0,22.7-20.6,41.2-45.9,41.2c-25.4,0-43-18.4-43-41.2s17.6-41.2,43-41.2
	C2400.7-66.5,2421.3-48,2421.3-25.3z"/>
<path class="st0" d="M2332.4-23.7c0,0,4,47.9,30,52.7c26,4.8,39.5,2.9,51.6-10.6c12.9-14.5,7.3-48.7,7.3-48.7"/>
<ellipse class="st0" cx="2330.1" cy="-39.9" rx="9.9" ry="12.6"/>
<ellipse class="st0" cx="2350" cy="-16.4" rx="10" ry="8.9"/>
<circle class="st0" cx="2357.3" cy="-64.7" r="7.3"/>
<circle class="st0" cx="2372" cy="-83.1" r="9"/>
<ellipse class="st0" cx="2386.3" cy="-24" rx="5.3" ry="6.2"/>
<ellipse class="st0" cx="2400.4" cy="-70.3" rx="5.9" ry="7.1"/>
<ellipse class="st0" cx="2402.8" cy="8.2" rx="6" ry="7.6"/>
<ellipse class="st0" cx="2403.9" cy="-30.1" rx="4.9" ry="6"/>
<ellipse class="st0" cx="2324.1" cy="-1.9" rx="6" ry="5.7"/>
</svg>
