<svg id="Layer_1" data-name="Layer 1" xmlns="http://www.w3.org/2000/svg" viewBox="0 0 2000 1099.9"><defs><style>.cls-1{fill:none;stroke:#000;stroke-miterlimit:10;stroke-width:4.89px;}</style></defs><title>google</title><path class="cls-1" d="M958.35,190.35s-8.91-8.82-20.17-.72c-8.21,5.91-7.2,19.31,0,24.2s15,4.78,21.18-1.44c3.43-3.43,2.45-9.94,2.45-9.94H948"/><circle class="cls-1" cx="978.44" cy="207.86" r="9.32"/><circle class="cls-1" cx="1004.51" cy="207.86" r="9.32"/><path class="cls-1" d="M1037.5,214a9.32,9.32,0,1,1,0-12.31"/><path class="cls-1" d="M1021.08,222.68s4.28,5.7,8.25,5.7c6,0,8.2-3.82,8.2-6.11V197.47"/><line class="cls-1" x1="1046.85" y1="218.76" x2="1046.85" y2="185.14"/><path class="cls-1" d="M1055,210.3l15.18-6.42s-4.28-7.95-11.1-4.28-5.6,18.23,4,18.23c7.64,0,8.27-4.38,8.27-4.38"/></svg>