<svg id="Layer_1" data-name="Layer 1" xmlns="http://www.w3.org/2000/svg" viewBox="0 0 2000 1099.9"><defs><style>.cls-1{fill:#fff;}</style></defs><title>hello</title><path class="cls-1" d="M908.13,152.37,921,145.94V148l-8.79,4.37,8.79,4.42v2Z"/><path class="cls-1" d="M927.91,159.37a1.72,1.72,0,0,1-1.71-1.71,1.62,1.62,0,0,1,.5-1.2,1.69,1.69,0,0,1,2.39,0,1.69,1.69,0,0,1,0,2.41A1.64,1.64,0,0,1,927.91,159.37Zm-1-5.79-.54-13.14h2.95l-.54,13.14Z"/><path class="cls-1" d="M936.65,152.29v-1.83h9.19v1.83Z"/><path class="cls-1" d="M950,152.29v-1.83h9.19v1.83Z"/><path class="cls-1" d="M975.47,158.81V140.43h2.39v7.91h6.77v-7.91H987v18.38h-2.39v-8.63h-6.77v8.63Z"/><path class="cls-1" d="M999.65,156.78v2h-9.92V140.43h9.74v1.85h-7.35v6.24h6.62v1.84h-6.62v6.43Z"/><path class="cls-1" d="M1013.16,156.78v2h-9.91V140.43h2.39v16.35Z"/><path class="cls-1" d="M1026.5,156.78v2h-9.91V140.43H1019v16.35Z"/><path class="cls-1" d="M1034.61,159.37a5.31,5.31,0,0,1-4.78-2.64,16.12,16.12,0,0,1,0-14.22,5.65,5.65,0,0,1,9.56,0,16.17,16.17,0,0,1,0,14.22A5.3,5.3,0,0,1,1034.61,159.37Zm0-1.84a3.35,3.35,0,0,0,2.88-2,12,12,0,0,0,1.15-5.95,12,12,0,0,0-1.15-5.95,3.1,3.1,0,0,0-5.77,0,12,12,0,0,0-1.15,5.95,12,12,0,0,0,1.15,5.95A3.35,3.35,0,0,0,1034.61,157.53Z"/><path class="cls-1" d="M1056.7,152.29v-1.83h9.19v1.83Z"/><path class="cls-1" d="M1070,152.29v-1.83h9.19v1.83Z"/><path class="cls-1" d="M1094.39,152.37l-12.86,6.44v-2l8.79-4.38-8.79-4.42v-2Z"/></svg>