<?xml version="1.0" encoding="utf-8"?>
<!-- Generator: Adobe Illustrator 19.1.0, SVG Export Plug-In . SVG Version: 6.00 Build 0)  -->
<!DOCTYPE svg PUBLIC "-//W3C//DTD SVG 1.1//EN" "http://www.w3.org/Graphics/SVG/1.1/DTD/svg11.dtd">
<svg version="1.1" id="imac" xmlns="http://www.w3.org/2000/svg" xmlns:xlink="http://www.w3.org/1999/xlink" x="0px" y="0px"
	 viewBox="604 -243.9 2000 1099.9" style="enable-background:new 604 -243.9 2000 1099.9;display:none;" xml:space="preserve">
<style type="text/css">
	.st0{fill:none;stroke:#FFFFFF;stroke-miterlimit:10;}
</style>
<path style="display:inline;fill:none;stroke:#FFFFFF;stroke-miterlimit:10;" d="M1907.7,38.7h-609.9c-6.6,0-14.1-5.3-18-12
	l-115-153.7c-5.6-8.8,5.4-12,12-12h857.5c6.6,0,14.5,3.7,8.7,11L1926.3,26.7C1920.6,34.3,1914.3,38.7,1907.7,38.7z"/>
<path style="display:inline;fill:none;stroke:#FFFFFF;stroke-miterlimit:10;" d="M1163.2-130.9c-4.8-9.6,6.9-15.1,13.5-15.1h857.5
	c6.6,0,15,6.1,10.4,15.1"/>
<path style="display:inline;fill:none;stroke:#FFFFFF;stroke-miterlimit:10;" d="M1516.7,38.7l-5.2,32.4c0,0-3,26.2,31.5,26.2
	s122,0,122,0s34-5,30.8-27.2s-5.1-31.4-5.1-31.4"/>
<line style="display:inline;fill:none;stroke:#FFFFFF;stroke-miterlimit:10;" x1="1275.8" y1="21.4" x2="1929.7" y2="21.4"/>
<path style="display:inline;fill:none;stroke:#FFFFFF;stroke-miterlimit:10;" d="M1909.7,12.8h-611c-1.1,0-2.4-0.9-3-2l-91-131.3
	c0-1.1,0.9-2,2-2l796.7-1c1.1,0,2,0.9,2,2l-92.7,132.3C1911.7,12.1,1910.8,12.8,1909.7,12.8z"/>
</svg>
