<?xml version="1.0" encoding="utf-8"?>
<!-- Generator: Adobe Illustrator 19.1.0, SVG Export Plug-In . SVG Version: 6.00 Build 0)  -->
<!DOCTYPE svg PUBLIC "-//W3C//DTD SVG 1.1//EN" "http://www.w3.org/Graphics/SVG/1.1/DTD/svg11.dtd">
<svg version="1.1" id="ipad" xmlns="http://www.w3.org/2000/svg" xmlns:xlink="http://www.w3.org/1999/xlink" x="0px" y="0px"
	 viewBox="604 -243.9 2000 1099.9" style="enable-background:new 604 -243.9 2000 1099.9;display:none;" xml:space="preserve">
<style type="text/css">
	.st0{fill:none;stroke:#FFFFFF;stroke-miterlimit:10;}
</style>
<path style="display:inline;fill:none;stroke:#FFFFFF;stroke-miterlimit:10;" d="M1176.4,440.5l-156.9,156.9c-2.6,2.6-6.8,2.6-9.4,0
	L902.3,489.7c-2.6-2.6-2.6-6.8,0-9.4l156.9-156.9c2.6-2.6,6.8-2.6,9.4,0l107.8,107.8C1179,433.7,1179,437.9,1176.4,440.5z"/>
<path style="display:inline;fill:none;stroke:#FFFFFF;stroke-miterlimit:10;" d="M1159.6,445.4l-136,136c-1.2,1.2-3.1,1.2-4.2,0
	l-100-100c-1.2-1.2-1.2-3.1,0-4.2l136-136c1.2-1.2,3.1-1.2,4.2,0l100,100C1160.7,442.3,1160.7,444.3,1159.6,445.4z"/>
<circle style="display:inline;fill:none;stroke:#FFFFFF;stroke-miterlimit:10;" cx="963.6" cy="536.8" r="5.3"/>
<circle style="display:inline;fill:none;stroke:#FFFFFF;stroke-miterlimit:10;" cx="1114.9" cy="384.8" r="2.3"/>
</svg>
