<?xml version="1.0" encoding="utf-8"?>
<!-- Generator: Adobe Illustrator 19.1.0, SVG Export Plug-In . SVG Version: 6.00 Build 0)  -->
<!DOCTYPE svg PUBLIC "-//W3C//DTD SVG 1.1//EN" "http://www.w3.org/Graphics/SVG/1.1/DTD/svg11.dtd">
<svg version="1.1" id="keyboard" xmlns="http://www.w3.org/2000/svg" xmlns:xlink="http://www.w3.org/1999/xlink" x="0px" y="0px"
	 viewBox="604 -243.9 2000 1099.9" style="enable-background:new 604 -243.9 2000 1099.9;display:none;" xml:space="preserve">
<style type="text/css">
	.st0{fill:none;stroke:#FFFFFF;stroke-miterlimit:10;}
</style>
<path style="display:inline;fill:none;stroke:#FFFFFF;stroke-miterlimit:10;" d="M1791.5,689.7h-430.8c-3.3,0-6-2.7-6-6V577.8
	c0-3.3,2.7-6,6-6h430.8c3.3,0,6,2.7,6,6v105.9C1797.5,687,1794.8,689.7,1791.5,689.7z"/>
<path style="display:inline;fill:none;stroke:#FFFFFF;stroke-miterlimit:10;" d="M1999.7,684.8h-124.3c-3.3,0-6-2.7-6-6V559
	c0-3.3,2.7-6,6-6h124.3c3.3,0,6,2.7,6,6v119.8C2005.7,682.1,2003,684.8,1999.7,684.8z"/>
<line style="display:inline;fill:none;stroke:#FFFFFF;stroke-miterlimit:10;" x1="1869.4" y1="573.9" x2="2005.7" y2="573.9"/>
</svg>
