<?xml version="1.0" encoding="utf-8"?>
<!-- Generator: Adobe Illustrator 19.1.0, SVG Export Plug-In . SVG Version: 6.00 Build 0)  -->
<!DOCTYPE svg PUBLIC "-//W3C//DTD SVG 1.1//EN" "http://www.w3.org/Graphics/SVG/1.1/DTD/svg11.dtd">
<svg version="1.1" id="laptop" xmlns="http://www.w3.org/2000/svg" xmlns:xlink="http://www.w3.org/1999/xlink" x="0px" y="0px"
	 viewBox="604 -243.9 2000 1099.9" style="enable-background:new 604 -243.9 2000 1099.9;" xml:space="preserve">
<style type="text/css">
	.st0{fill:none;stroke:#FFFFFF;stroke-miterlimit:10;}
</style>
<path class="st0" d="M1065.3,268.1L835.4,498.2c-4,4-10.7,4.1-14.7,0L666.9,344.5c-4-4-4.1-10.7,0-14.7L896.8,99.7
	c4-4,10.7-4.1,14.7,0l153.8,153.7C1069.4,257.4,1069.4,264,1065.3,268.1z"/>
<path class="st0" d="M870.3,278.3c0,0-11.2-2.3-13.2,10.2c0,0-11.5,3.5-10.5,11.8c1,8.3,9,13.3,9,13.3s6.2,5,13.3,4.8
	c7.2-0.2,7.5-6.8,7.5-6.8s0.3-2.8,3.2-3.3c2.8-0.5,8.5-3,6.8-9.3s-3.3-9.2-3.3-9.2s-5.5,3-10.5-2S870.3,278.3,870.3,278.3z"/>
<path class="st0" d="M853.3,273.6c0,0-6.5,6.5,1.5,13.7C854.8,287.3,861.3,281.3,853.3,273.6z"/>
</svg>
