<?xml version="1.0" encoding="utf-8"?>
<!-- Generator: Adobe Illustrator 19.1.0, SVG Export Plug-In . SVG Version: 6.00 Build 0)  -->
<!DOCTYPE svg PUBLIC "-//W3C//DTD SVG 1.1//EN" "http://www.w3.org/Graphics/SVG/1.1/DTD/svg11.dtd">
<svg version="1.1" id="notebook" xmlns="http://www.w3.org/2000/svg" xmlns:xlink="http://www.w3.org/1999/xlink" x="0px" y="0px"
	 viewBox="604 -243.9 2000 1099.9" style="enable-background:new 604 -243.9 2000 1099.9;" xml:space="preserve">
<style type="text/css">
	.st0{fill:none;stroke:#FFFFFF;stroke-miterlimit:10;}
</style>
<path class="st0" d="M2331.2,299.6l-166.1-166.1c-0.8-0.8-0.8-2.1,0-2.8L2276.8,19c0.8-0.8,2.1-0.8,2.8,0l166.1,166.1
	c0.8,0.8,0.8,2.1,0,2.8L2334,299.6C2333.2,300.4,2331.9,300.4,2331.2,299.6z"/>
<line class="st0" x1="2245.5" y1="213.9" x2="2360.1" y2="99.4"/>
<line class="st0" x1="2251.3" y1="219.8" x2="2365.9" y2="105.2"/>
<line class="st0" x1="2245.5" y1="197.6" x2="2264.8" y2="217"/>
<line class="st0" x1="2256.7" y1="186.5" x2="2276" y2="205.8"/>
<line class="st0" x1="2266.5" y1="176.6" x2="2285.9" y2="196"/>
<line class="st0" x1="2276.4" y1="166.7" x2="2295.8" y2="186.1"/>
<line class="st0" x1="2286.2" y1="156.9" x2="2305.6" y2="176.3"/>
<line class="st0" x1="2296.3" y1="146.9" x2="2315.6" y2="166.2"/>
<line class="st0" x1="2306" y1="137.1" x2="2325.4" y2="156.5"/>
<line class="st0" x1="2315.5" y1="127.6" x2="2334.9" y2="147"/>
<line class="st0" x1="2325.4" y1="117.7" x2="2344.8" y2="137.1"/>
<line class="st0" x1="2335.5" y1="107.6" x2="2354.9" y2="127"/>
<line class="st0" x1="2345.3" y1="97.9" x2="2364.6" y2="117.2"/>
<path class="st0" d="M2383.6,166.8l-89.6,89.6c-1.3,1.3-3.3,1.3-4.6,0l0,0c-1.3-1.3-1.3-3.3,0-4.6l89.6-89.6l12.7-7.7L2383.6,166.8z
	"/>
<path class="st0" d="M2430.2,146.5l-122.7,122.7c-1.3,1.3-3.3,1.3-4.6,0l0,0c-1.3-1.3-1.3-3.3,0-4.6l122.7-122.7l12.7-7.7
	L2430.2,146.5z"/>
</svg>
