<?xml version="1.0" encoding="utf-8"?>
<!-- Generator: Adobe Illustrator 19.1.0, SVG Export Plug-In . SVG Version: 6.00 Build 0)  -->
<!DOCTYPE svg PUBLIC "-//W3C//DTD SVG 1.1//EN" "http://www.w3.org/Graphics/SVG/1.1/DTD/svg11.dtd">
<svg version="1.1" id="phone" xmlns="http://www.w3.org/2000/svg" xmlns:xlink="http://www.w3.org/1999/xlink" x="0px" y="0px"
	 viewBox="604 -243.9 2000 1099.9" style="enable-background:new 604 -243.9 2000 1099.9;" xml:space="preserve">
<style type="text/css">
	.st0{fill:none;stroke:#FFFFFF;stroke-miterlimit:10;}
</style>
<path class="st0" d="M2419.7,459.7l-107.4,107.4c-3.9,3.9-10.3,3.9-14.1,0l-49.8-49.8c-3.9-3.9-3.9-10.3,0-14.1l107.4-107.4
	c3.9-3.9,10.3-3.9,14.1,0l49.8,49.8C2423.6,449.4,2423.6,455.8,2419.7,459.7z"/>
<path class="st0" d="M2413.6,459.5L2309,564.1c-0.4,0.4-1,0.4-1.4,0l-56.1-56.1c-0.4-0.4-0.4-1,0-1.4L2356.1,402
	c0.4-0.4,1-0.4,1.4,0l56.1,56.1C2414,458.5,2414,459.1,2413.6,459.5z"/>
<line class="st0" x1="2379.9" y1="414.6" x2="2400" y2="434.7"/>
<line class="st0" x1="2266.2" y1="529.1" x2="2286.3" y2="549.2"/>
<circle class="st0" cx="2408" cy="442.9" r="2.8"/>
<path class="st0" d="M2420.1,379.3c0,0-5.8-50.6,19-50.6c24.8,0,44.2,10.4,45.7,23c1.5,12.6-0.3,29.8-10.1,31.9
	c-9.8,2.1-31.6,9.2-41.1,0s-17.5-35.9-7.4-42.6c10.1-6.7,16.3-19.9,31.6-14.7c15.3,5.2,21.8,11,23.3,25.2
	c1.5,14.1,2.1,38.1-19.6,41.5c-21.8,3.3-45.7-15.4-45.1-32c0.6-16.6,9.5-39.3,25.8-40.2s34,12.9,33.4,27.6
	c-0.6,14.7,7.7,28.8-10.1,34.4s-51.3-1.5-42.8-29.4c8.5-28,38.5-38,46.8-28.8c8.3,9.2,21.5,22.1,19,34.7s1.5,35-19,39.6
	s-59.2-24.9-41.7-49.1c17.5-24.2,46-23.6,50.9,5.2c4.9,28.8-39.6,32.8-48.5,20.2s-4.9-38.3,11.3-43.6c16.3-5.2,45.4,4.4,45.4,23.6
	c0,19.2-5.8,56.1-54.9,35.3c-49.1-20.9-5.2-62.6,8.3-66.3s31.6-0.3,35.6,1.2c4,1.5,39.6,30.1,39.6,30.1s13.2,13.8,6.4,32.8
	c-6.7,19-19.6,48.3-23.3,51.9"/>
<path class="st0" d="M2496.8,438.8l2.8,2.3l-4,3.3l0.8,1.2c0,0-18.7,18.3-21.3,19.8c-2.7,1.5-10.3,5-13,1c-2.7-4-2.3-9.7,1.8-12
	c4.2-2.3,8.8-2.5,10-0.9c1.2,1.6,1,3.7,0.5,4.9c-0.5,1.2,1,1.3,2.2,0c1.2-1.3,15.8-16.5,15.8-16.5l1,0.9L2496.8,438.8z"/>
<path class="st0" d="M2486.8,376.1l-0.9,10.7h1.7l-0.8,4.5l-7.3,22c0,0,10.2,2.8,9.7,8c-0.5,5.2-1.8,9.8-9.7,9.8
	c-7.8,0-8.7-9.3-8.7-9.3s0-5.9,4.3-7.2l9.1-27.8"/>
<polygon class="st0" points="2417.5,379.4 2421.8,379.4 2422.7,398.9 2422.7,412.8 2420.1,412.8 2418.3,396.9 "/>
</svg>
