<?xml version="1.0" standalone="no"?>
<!DOCTYPE svg PUBLIC "-//W3C//DTD SVG 20010904//EN"
 "http://www.w3.org/TR/2001/REC-SVG-20010904/DTD/svg10.dtd">
<svg version="1.0" xmlns="http://www.w3.org/2000/svg"
 width="260.000000pt" height="260.000000pt" viewBox="0 0 260.000000 260.000000"
 preserveAspectRatio="xMidYMid meet">
<metadata>
Created by potrace 1.11, written by Peter Selinger 2001-2013
</metadata>
<g transform="translate(0.000000,260.000000) scale(0.100000,-0.100000)"
fill="#000000" stroke="none">
<path d="M534 1874 c-21 -7 -46 -22 -55 -33 -9 -11 -72 -145 -139 -298 -68
-153 -172 -389 -232 -524 -92 -210 -107 -250 -99 -272 13 -34 26 -36 166 -34
106 2 124 5 151 24 36 26 28 11 169 328 58 132 109 243 113 247 6 6 85 -325
98 -407 9 -55 40 -163 50 -176 11 -12 38 -16 130 -17 128 -1 176 11 206 52 15
20 151 319 179 393 5 14 11 24 13 22 2 -2 7 -42 10 -89 9 -120 15 -140 39
-149 41 -15 249 -6 283 12 41 21 48 30 99 134 26 53 44 80 45 68 4 -39 7 -152
9 -277 1 -173 -2 -169 169 -165 170 4 175 8 240 157 11 25 31 70 45 100 13 30
50 114 82 185 31 72 63 144 70 160 33 73 165 375 185 425 13 30 27 60 32 67
12 16 -1 62 -21 72 -9 5 -68 9 -133 9 -163 -1 -192 -19 -248 -158 -12 -30 -42
-99 -87 -200 -14 -29 -13 -31 -18 100 -8 246 -6 230 -30 246 -17 11 -51 14
-139 13 -166 -3 -178 -11 -261 -181 -71 -145 -69 -146 -81 15 -3 49 -7 96 -9
105 -2 10 -4 20 -4 24 -1 4 -8 13 -16 21 -12 12 -41 15 -142 14 -180 -3 -173
3 -277 -232 -12 -27 -56 -125 -96 -217 -41 -92 -75 -166 -76 -165 -2 1 -6 18
-9 37 -3 19 -12 62 -20 95 -8 33 -33 148 -57 255 -27 123 -49 201 -59 211 -14
14 -37 17 -126 17 -65 0 -126 -6 -149 -14z"/>
</g>
</svg>
