<svg id="Layer_1" data-name="Layer 1" xmlns="http://www.w3.org/2000/svg" viewBox="0 0 300 300"><defs><style>.cls-1{fill:#f0f0f0;}</style></defs><title>icon-jquery</title><path class="cls-1" d="M266.06,207.05,265,209.81c-18.12,35.29-50.23,56.93-96,57.89a134.26,134.26,0,0,1-55.13-11c-28.76-12.92-52.95-36.88-66.16-62.49-18.95-36.7-22.37-87.75,17-125.89.61,0-4.78,8.27-4.17,8.27L59.45,80.1C31.06,169,118.54,245.17,203.57,236.46c20.44-2.09,46.5-13.29,62.48-29.4"/><path class="cls-1" d="M214.6,170.3c21.39.15,43.74-9.85,57-23.89-11.58,29.39-45.1,48.28-90,42.27-37.64-5-73.49-42.91-77.19-80.86-2.7-27.62,6.92-44.1,22.79-64.1-5.51,10.46-7.57,18.52-8.09,23.67C113,127.13,166.76,170,214.6,170.3"/><path class="cls-1" d="M269.42,96.09c-3.32,7.63-22.47,22-30.93,23.84-33.48,7.13-54.93-8.74-66.16-26.81A82.75,82.75,0,0,1,167,81.16c-4.36-14.81-2.35-37.22,10.64-48.81-3.91,11-4.49,23.84-2.43,32.16a71.42,71.42,0,0,0,8.86,19.35c6.92,10.07,11.32,12.52,20.21,17.87a53.63,53.63,0,0,0,10.16,4.87c8.44,2.48,26.24,9,55-10.51"/></svg>