<svg id="Layer_1" data-name="Layer 1" xmlns="http://www.w3.org/2000/svg" viewBox="0 0 300 300"><defs><style>.cls-1{fill:#f0f0f0;stroke:#fff;stroke-miterlimit:10;stroke-width:1.14px;}</style></defs><title>icon-gulp</title><path class="cls-1" d="M103.34,86.49a9.63,9.63,0,0,0,1.92-6.33,21.28,21.28,0,0,0-.34-3.62,9.62,9.62,0,0,0-1.62-3.79q-5.58-8.38-12-12.14a25.9,25.9,0,0,0-13.26-3.74,30.42,30.42,0,0,0-12,2.59,55.32,55.32,0,0,0-12,7.18,84.71,84.71,0,0,0-11.6,11,125.26,125.26,0,0,0-10.66,14,153,153,0,0,0-9.26,16.1A165.9,165.9,0,0,0,15,125.11,142.88,142.88,0,0,0,9.79,143a107.9,107.9,0,0,0-2.44,17.58,7.49,7.49,0,0,0-.08,1.07v1.16a38.2,38.2,0,0,0,1.2,9.46,27.43,27.43,0,0,0,3.69,8.48,19.92,19.92,0,0,0,6.29,6.07,17.18,17.18,0,0,0,9.08,2.32,23.34,23.34,0,0,0,9.56-2.23A56,56,0,0,0,47,181.2a93.19,93.19,0,0,0,9.56-7.94q4.68-4.42,8.67-8.88-1.36,4.19-3.05,9.5c-1.13,3.55-2.19,7-3.16,10.26s-1.82,6.26-2.52,8.88a32.45,32.45,0,0,0-1.13,5.36,12.32,12.32,0,0,0-.08,1.33V201q0,4.28,1.09,5.89a3.94,3.94,0,0,0,3.5,1.61,4.59,4.59,0,0,0,2.79-1,12,12,0,0,0,2.49-2.59,21.35,21.35,0,0,0,2-3.3,18.06,18.06,0,0,0,1.21-3.17c.1-.3.38-1.25.83-2.85s1-3.61,1.69-6,1.44-5,2.3-8,1.74-5.95,2.68-9,1.83-6.07,2.71-9,1.69-5.61,2.44-8,1.39-4.35,1.92-5.93A16.76,16.76,0,0,1,84,146.81h0c.9-2.62,1.83-5.14,2.77-7.53s1.82-4.8,2.6-7.18a64.23,64.23,0,0,0,1.92-7.32,40.65,40.65,0,0,0,.75-8,7.48,7.48,0,0,0-.49-2.81,5.27,5.27,0,0,0-1.32-2,5.14,5.14,0,0,0-1.88-1.12,6.56,6.56,0,0,0-2.11-.36,7.45,7.45,0,0,0-4.26,1.43,10,10,0,0,0-3.35,4.82l-7,21A43.56,43.56,0,0,1,67.75,144c-1.7,2.41-3.67,4.92-5.87,7.54s-4.59,5.2-7.15,7.76a93.48,93.48,0,0,1-7.65,6.87,47.11,47.11,0,0,1-7.34,4.91,13.84,13.84,0,0,1-6.32,1.87,6.08,6.08,0,0,1-4.1-1.38A9.49,9.49,0,0,1,26.75,168a17.35,17.35,0,0,1-1.28-4.78,39.22,39.22,0,0,1-.34-5.13,67.89,67.89,0,0,1,2.44-16.91,135.05,135.05,0,0,1,6.59-19.09,171,171,0,0,1,9.53-18.91A126.34,126.34,0,0,1,54.95,86.79,65.61,65.61,0,0,1,66.81,75.24q6-4.37,11.26-4.38a11.16,11.16,0,0,1,6.29,1.91A17.61,17.61,0,0,1,89.67,79a47.87,47.87,0,0,0,4.63,7.27,5.41,5.41,0,0,0,9,.23Z"/><path class="cls-1" d="M294.2,143.54a2.7,2.7,0,0,0-2.49-1.47,3.87,3.87,0,0,0-1.73.44,16.92,16.92,0,0,0-2,1.16h0q-10.09,9-17,14.94t-11.37,9.46a63.11,63.11,0,0,1-7,4.95,8.74,8.74,0,0,1-3.77,1.43,3.11,3.11,0,0,1-2.26-.67A2.38,2.38,0,0,1,246,172q.08-.79,2-3.08t4.74-5.53q2.83-3.26,6.07-7.23t6-8.16a57,57,0,0,0,4.63-8.34,19.27,19.27,0,0,0,1.85-7.81,9.59,9.59,0,0,0-1.2-4.86,11,11,0,0,0-3.13-3.48,14.25,14.25,0,0,0-4.37-2.09,17.43,17.43,0,0,0-4.93-.72,18.6,18.6,0,0,0-7.23,1.51,38.72,38.72,0,0,0-7.08,3.93,62.52,62.52,0,0,0-6.71,5.4c-2.16,2-4.17,4-6,6a12.45,12.45,0,0,0,.49-1.69c.17-.77.33-1.59.49-2.45s.27-1.68.38-2.45a14.32,14.32,0,0,0,.15-1.69,5.56,5.56,0,0,0-1.36-4.06,5.91,5.91,0,0,0-4.37-1.38,4.74,4.74,0,0,0-3.65,2.09,24.62,24.62,0,0,0-3.05,4.95,62.06,62.06,0,0,0-2.41,5.8q-1.05,2.95-1.66,4.56c-.68,2.43-1.46,4.91-2.3,7.44a3.33,3.33,0,0,0-1.15.76c-1.41,1.43-3,3-4.79,4.68s-3.66,3.38-5.61,5.09-3.93,3.33-5.91,4.91-3.89,3-5.73,4.2A39.9,39.9,0,0,1,185,171.3a9.71,9.71,0,0,1-4,1.12,1.81,1.81,0,0,1-1.73-.8,4.42,4.42,0,0,1-.45-2.15,17.52,17.52,0,0,1,.79-4.86,49.79,49.79,0,0,1,1.62-4.78h0q1.87-4.82,4.5-11.38t5.57-13.87l6.1-15q3.13-7.72,6.1-14.85t5.57-13.2q2.59-6.06,4.48-10.26,1-2.05,1.62-3.84a10.05,10.05,0,0,0,.64-3.39c0-2.26-.64-3.9-1.92-4.91a6.72,6.72,0,0,0-4.26-1.51A8.73,8.73,0,0,0,205,69a9.6,9.6,0,0,0-3.66,4.91l-22.82,57.55q-2.27,5.7-5,12.58t-5.35,13.83a61.6,61.6,0,0,0-2.51,8.1q-.94.78-1.89,1.5a39.54,39.54,0,0,1-7.27,4.5,14.54,14.54,0,0,1-5.8,1.61q-3.32,0-3.32-3.21a31.32,31.32,0,0,1,1-7.54,84,84,0,0,1,2.56-8.3q1.54-4.23,3.35-8.34t3.35-7.72c1-2.41,1.88-4.56,2.56-6.43a13.85,13.85,0,0,0,1-4.42,7.83,7.83,0,0,0-1.58-4.91,5.13,5.13,0,0,0-4.29-2.05,5.21,5.21,0,0,0-4.14,2,19.57,19.57,0,0,0-2.94,4.91A64.7,64.7,0,0,0,146,134a50.83,50.83,0,0,1-2.52,6.51q-2,4.55-5.09,10a75.88,75.88,0,0,1-6.82,10.26,41.29,41.29,0,0,1-8.21,8A15.69,15.69,0,0,1,114,172a2.64,2.64,0,0,1-2.49-1.34,5.91,5.91,0,0,1-.75-2.95,34.71,34.71,0,0,1,1.28-7.9,76.32,76.32,0,0,1,2.71-8q1.58-3.92,3.43-7.58t3.5-6.83q1.65-3.17,2.9-5.62a19.51,19.51,0,0,0,1.62-4,6,6,0,0,0,.23-1.69,4.58,4.58,0,0,0-.61-2.37,5.25,5.25,0,0,0-1.58-1.69,7.31,7.31,0,0,0-2.11-1,8.38,8.38,0,0,0-2.19-.31,7.57,7.57,0,0,0-4.48,1.47,12.1,12.1,0,0,0-3.65,4.86q-6.17,12.86-9.56,21.86t-5,14.67a57.11,57.11,0,0,0-1.92,8.3c-.2,1.75-.3,2.66-.3,2.72A16.76,16.76,0,0,0,96.08,181a10.68,10.68,0,0,0,2.79,4.06,10.06,10.06,0,0,0,4,2.14,18.06,18.06,0,0,0,4.79.62A27.58,27.58,0,0,0,117.85,186a33.15,33.15,0,0,0,8.44-4.77,42.89,42.89,0,0,0,6.71-6.51,48.74,48.74,0,0,0,4.9-7.05,44.87,44.87,0,0,0-1.2,9.55q0,5.81,2.26,8.21a7.71,7.71,0,0,0,5.88,2.41,20.31,20.31,0,0,0,8.14-2,54.55,54.55,0,0,0,9.19-5.31c.89-.63,1.77-1.29,2.65-2,.08.55.17,1.09.29,1.61a10.68,10.68,0,0,0,1.77,4,8.59,8.59,0,0,0,3.32,2.68,12,12,0,0,0,5.16,1,22.69,22.69,0,0,0,9.31-2.14,52,52,0,0,0,9.64-5.76,100.09,100.09,0,0,0,9.75-8.34l.5-.49c-.53,1.22-1.05,2.44-1.6,3.66q-3.87,8.79-8.09,17.76t-8.29,17.89c-.4,1.08-.84,2.19-1.32,3.35s-.94,2.34-1.39,3.56a33.52,33.52,0,0,0-1.13,3.7,15.69,15.69,0,0,0-.45,3.66q0,3.65,1.77,4.95a7.47,7.47,0,0,0,4.49,1.29,7.74,7.74,0,0,0,3.8-.93,10.6,10.6,0,0,0,3-2.5,17.76,17.76,0,0,0,2.33-3.62,33.39,33.39,0,0,0,1.77-4.38c.15-.54.5-1.55,1.06-3s1.2-3.2,1.92-5.17,1.5-4,2.33-6.25,1.62-4.3,2.37-6.29,1.42-3.73,2-5.22,1-2.5,1.25-3,.54-1.17,1-2.27l1.62-3.75q.9-2.09,2-4.46c.73-1.57,1.42-3.1,2.08-4.59s1.25-2.83,1.8-4,1-2.11,1.28-2.77q1.5-3.13,3.65-6.83c1.43-2.47,3-4.91,4.74-7.36a88.12,88.12,0,0,1,5.57-7.05,56.15,56.15,0,0,1,6.1-6,30.79,30.79,0,0,1,6.32-4.19,14.12,14.12,0,0,1,6.21-1.56,3.9,3.9,0,0,1,2.49.62A2.08,2.08,0,0,1,256,138a9.48,9.48,0,0,1-1.81,4.64,71.65,71.65,0,0,1-4.56,6.29q-2.76,3.44-6,7.27t-6.1,7.58a73.1,73.1,0,0,0-4.9,7.23,16.2,16.2,0,0,0-2.33,6.15,4.65,4.65,0,0,0-.08.76v.67a8.32,8.32,0,0,0,3.13,6.87q3.13,2.49,8.85,2.5a28.46,28.46,0,0,0,11.45-2.32,54,54,0,0,0,11-6.55,155.44,155.44,0,0,0,11.94-10.13q6.32-5.88,14.38-13a10,10,0,0,0,3.05-4,12,12,0,0,0,1-4.73A7.25,7.25,0,0,0,294.2,143.54Z"/></svg>