<svg id="Layer_1" data-name="Layer 1" xmlns="http://www.w3.org/2000/svg" viewBox="0 0 300 300"><defs><style>.cls-1{fill:#f0f0f0;}</style></defs><title>icon-git</title><path class="cls-1" d="M274.06,137.49,159.31,22.74a16.93,16.93,0,0,0-23.94,0L111.54,46.57,141.77,76.8a20.1,20.1,0,0,1,25.46,25.63l29.13,29.13a20.12,20.12,0,1,1-12.06,11.36l-27.17-27.17v71.5a20.35,20.35,0,0,1,5.33,3.81,20.12,20.12,0,1,1-21.89-4.39V114.49a19.9,19.9,0,0,1-6.59-4.4,20.13,20.13,0,0,1-4.34-22l-29.8-29.8L21.14,137a16.93,16.93,0,0,0,0,23.94L135.9,275.65a16.93,16.93,0,0,0,23.94,0L274.06,161.43a16.94,16.94,0,0,0,0-23.95"/></svg>