<svg id="Layer_1" data-name="Layer 1" xmlns="http://www.w3.org/2000/svg" viewBox="0 0 300 300"><defs><style>.cls-1{fill:#f0f0f0;}</style></defs><title>icon-js</title><path class="cls-1" d="M143.5,8.3a23.53,23.53,0,0,1,23,0q52.45,29.64,104.9,59.25a21.59,21.59,0,0,1,10.91,18.6V205a21.83,21.83,0,0,1-11.72,19Q218.28,253.49,166,283a22.86,22.86,0,0,1-23.22-.65q-15.67-9.09-31.36-18.13c-2.14-1.27-4.54-2.29-6-4.36,1.33-1.8,3.72-2,5.65-2.8a73.2,73.2,0,0,0,12.37-5.77,2.89,2.89,0,0,1,3.22.19c8.93,5.12,17.79,10.39,26.75,15.47,1.91,1.1,3.85-.36,5.48-1.27q51.3-29,102.63-57.92a3.39,3.39,0,0,0,1.86-3.34q0-58.82,0-117.64a3.68,3.68,0,0,0-2.19-3.67Q209.1,53.76,157,24.39a3.62,3.62,0,0,0-4.09,0Q100.86,53.73,48.79,83.11a3.63,3.63,0,0,0-2.2,3.65q0,58.82,0,117.65a3.33,3.33,0,0,0,1.89,3.3q13.9,7.88,27.82,15.71c5.22,2.81,11.64,4.48,17.39,2.33a13.19,13.19,0,0,0,8.54-12.4c0-39,0-78,0-116.95a2.94,2.94,0,0,1,3.2-3c4.45,0,8.91-.06,13.36,0A3.08,3.08,0,0,1,121.73,97c0,39.23,0,78.46,0,117.69,0,10.45-4.28,21.83-14,26.95-11.91,6.17-26.64,4.86-38.41-1.06C59.15,235.47,49.43,229.47,39.42,224A21.78,21.78,0,0,1,27.7,205V86.15A21.63,21.63,0,0,1,39,67.32Q91.25,37.82,143.5,8.3Z"/><path class="cls-1" d="M173.9,90.64c15.2-1,31.47-.58,45.14,6.91,10.59,5.74,16.46,17.78,16.64,29.54a3.2,3.2,0,0,1-3.47,2.35c-4.41,0-8.82.06-13.23,0-1.87.07-3-1.65-3.19-3.31-1.27-5.63-4.34-11.2-9.63-13.92-8.13-4.07-17.56-3.87-26.43-3.78-6.47.34-13.43.9-18.92,4.71-4.21,2.88-5.49,8.7-4,13.39,1.42,3.37,5.3,4.45,8.48,5.45,18.31,4.79,37.72,4.31,55.69,10.62,7.44,2.57,14.71,7.57,17.26,15.35,3.33,10.44,1.87,22.91-5.56,31.29-6,6.9-14.79,10.65-23.54,12.69-11.64,2.59-23.71,2.66-35.53,1.51-11.11-1.27-22.68-4.19-31.25-11.76-7.34-6.37-10.92-16.29-10.56-25.87a3,3,0,0,1,3.25-2.61c4.44,0,8.88,0,13.32,0a3.11,3.11,0,0,1,3.18,3.08c.82,5.36,2.83,11,7.51,14.17,9,5.82,20.35,5.42,30.68,5.59,8.56-.38,18.17-.49,25.16-6.15,3.69-3.23,4.78-8.63,3.78-13.27-1.08-3.92-5.18-5.75-8.7-6.94-18.08-5.72-37.7-3.64-55.61-10.11-7.27-2.57-14.3-7.43-17.09-14.89-3.9-10.57-2.11-23.64,6.09-31.74,8-8.05,19.55-11.15,30.52-12.26Z"/></svg>