<svg id="Layer_1" data-name="Layer 1" xmlns="http://www.w3.org/2000/svg" viewBox="0 0 300 300"><defs><style>.cls-1{fill:#f0f0f0;}</style></defs><title>icon-webpack</title><path class="cls-1" d="M265.64,217.44,159.3,277.6V230.74l66.26-36.45Zm7.27-6.59V85L234,107.51v80.86l38.92,22.49Zm-229.3,6.59L150,277.6V230.74L83.7,194.3,43.62,217.44Zm-7.27-6.59V85l38.92,22.46v80.86L36.34,210.85ZM40.89,76.91,150,15.2V60.5L80.09,98.94l-.53.31Zm227.47,0L159.3,15.2V60.5l69.87,38.43.53.31Z"/><path class="cls-1" d="M150,220.09,84.59,184.15V112.93L150,150.67v69.41Zm9.33,0,65.37-35.94V112.93L159.3,150.67v69.41ZM89,104.69l65.62-36.09,65.62,36.09-65.62,37.9Z"/></svg>