<svg id="Layer_1" data-name="Layer 1" xmlns="http://www.w3.org/2000/svg" viewBox="0 0 2500 2500"><defs><style>.cls-1{fill:none;stroke:#f0f0f0;stroke-miterlimit:10;}</style></defs><title>icon-git</title><path class="cls-1" d="M1974.6,1182.89l-657.54-657.5a97,97,0,0,0-137.15,0L1043.37,661.93l173.21,173.21A115.18,115.18,0,0,1,1362.44,982l166.93,166.93a115.26,115.26,0,1,1-69.12,65.07L1304.57,1058.3l0,409.66a116.6,116.6,0,0,1,30.52,21.83,115.3,115.3,0,1,1-125.42-25.18V1051.13a114,114,0,0,1-37.77-25.18A115.37,115.37,0,0,1,1147,899.78L976.27,729,525.41,1179.85a97,97,0,0,0,0,137.2L1183,1974.56a97,97,0,0,0,137.16,0l654.47-654.46a97.05,97.05,0,0,0,0-137.21"/></svg>