<svg id="Layer_1" data-name="Layer 1" xmlns="http://www.w3.org/2000/svg" viewBox="0 0 300 300"><defs><style>.cls-1{fill:#f0f0f0;}</style></defs><title>icon-adobe</title><path class="cls-1" d="M278.08,145.79v8.59c-.08.47-.18.92-.24,1.39-.44,3.74-.73,7.5-1.35,11.21a91.69,91.69,0,0,1-12.79,33.62,95.61,95.61,0,0,1-39.64,35.92,92.72,92.72,0,0,1-30.58,9c-2.36.27-4.72.52-7.09.78H94.73a11.47,11.47,0,0,0-1.39-.25,78.18,78.18,0,0,1-26.62-6.4A81.19,81.19,0,0,1,25.5,200.48a77.07,77.07,0,0,1-7.61-25.35q-.39-3.22-.77-6.43v-8.34a11.14,11.14,0,0,0,.25-1.39,76.8,76.8,0,0,1,5-23.26A81.15,81.15,0,0,1,63,91a79.63,79.63,0,0,1,31.83-8.23,88.42,88.42,0,0,1,16.35.75,2.06,2.06,0,0,0,1.54-.5,96.67,96.67,0,0,1,26.72-19.36,93.51,93.51,0,0,1,30.73-9.06c2.53-.29,5.08-.53,7.61-.79h7.82c.51.08,1,.17,1.54.23,3.87.45,7.77.73,11.6,1.38a91.94,91.94,0,0,1,33.42,12.69,95.62,95.62,0,0,1,36.09,39.71,92.5,92.5,0,0,1,9,30.6c.28,2.45.52,4.9.78,7.35M132.17,90.19c.16.21.2.3.26.34a104.41,104.41,0,0,1,15.33,9.27,1.61,1.61,0,0,0,1.43-.1,60.23,60.23,0,0,1,80.11,13.79c10.68,13.7,14.75,29.19,11.8,46.42a59.51,59.51,0,0,1-14.47,30.59c-14.35,15.82-32.31,22.37-53.46,19.6a56.45,56.45,0,0,1-33.56-16.72c-11.94-12.06-24-24-35.93-36.07A9.69,9.69,0,0,0,98,154.12a9,9,0,0,0-9.39,5.12c-1.55,3.22-1.35,6.85,2,10.15,13.35,13.1,26.58,26.33,39.91,39.45a64.45,64.45,0,0,0,7.32,6.23c9.74,7.07,20.72,11,32.62,12.56a78.68,78.68,0,0,0,27.79-1.1,78.21,78.21,0,0,0,59.92-91.17,74.91,74.91,0,0,0-17.62-36.12c-17.58-19.75-39.71-28.56-66-26.59a73.36,73.36,0,0,0-28.72,8.45,75.79,75.79,0,0,0-13.65,9.09M125.73,228l-1.08-1c-5.46-5.15-10.95-10.27-16.34-15.49a4.42,4.42,0,0,0-3.48-1.47c-5.46.13-10.93.16-16.31-1.06-26.76-6.05-42.3-35.15-32.44-60.75,7.78-20.19,29.32-32.48,50.55-28.69a44.24,44.24,0,0,1,24.73,12.8c8.36,8.63,17,17,25.43,25.57a7.6,7.6,0,0,0,6.8,2.45c3.45-.49,6.19-2.13,7.43-5.51a8.14,8.14,0,0,0-1.89-9c-8.87-9-17.54-18.2-26.77-26.81-17.9-16.7-39-21.67-62.37-14.56-31.41,9.54-49.79,42-42.61,74A63.24,63.24,0,0,0,99.27,228.1h25c.41,0,.82,0,1.46-.07"/></svg>