<svg id="Layer_1" data-name="Layer 1" xmlns="http://www.w3.org/2000/svg" viewBox="0 0 300 300"><defs><style>.cls-1{fill:#ddd;}.cls-2{fill:#f0f0f0;}</style></defs><title>icon-sketch</title><polygon class="cls-1" points="285.87 97.32 239.43 132.07 206.4 82.59 253.13 60.6 285.87 97.32 285.87 97.32"/><polygon class="cls-1" points="222.38 137.37 77.41 137.37 106.26 86.12 192.67 86.33 222.38 137.37"/><polygon class="cls-1" points="107.42 33.52 195.88 33.52 239.43 52.73 195.69 71.78 107.24 71.78 63.94 52.74 107.42 33.52 107.42 33.52"/><polygon class="cls-1" points="49.28 60.6 93.1 82.56 61.72 131.1 16.54 97.32 49.28 60.6 49.28 60.6"/><polygon class="cls-1" points="33.38 122.91 61.93 146.98 129.86 258.76 33.38 122.91 33.38 122.91"/><polygon class="cls-1" points="81.37 153.27 219.02 153.27 151.25 278.15 81.37 153.27 81.37 153.27"/><polygon class="cls-1" points="172.55 258.76 240.48 146.98 269.03 122.91 172.55 258.76"/><path class="cls-2" d="M255.74,48.47,204.39,25.87H97.91l-51,23L4.41,96.05,151.25,291.33,298.1,96.06,255.74,48.47Zm30.12,48.86-46.44,34.75-33-49.48,46.73-22,32.74,36.72Zm-63.49,40h-145l28.85-51.25,86.41.21Zm-115-103.85h88.46l43.55,19.21L195.69,71.78H107.24l-43.3-19,43.48-19.22ZM49.28,60.6l43.82,22L61.72,131.1,16.54,97.32,49.28,60.6Zm-15.9,62.31L61.93,147l67.93,111.78L33.38,122.91Zm48,30.36H219L151.25,278.15,81.37,153.27Zm91.18,105.49L240.48,147,269,122.91Z"/></svg>