<svg id="Layer_1" data-name="Layer 1" xmlns="http://www.w3.org/2000/svg" viewBox="0 0 300 300"><defs><style>.cls-1{fill:#d8d8d8;}.cls-2{fill:#ccc;}.cls-3{fill:#f57f17;}.cls-4{fill:#f0f0f0;}.cls-5{fill:#ffca28;}.cls-6{fill:#ffa000;}</style></defs><title>icon-firebase</title><path class="cls-1" d="M174.93,111.7,153,67.73c-3-5.29-7.82-5.28-10.79,0L130.47,94l20.58,41.51Z"/><polygon class="cls-2" points="151.05 135.56 130.47 94.05 130.47 94.05 130.47 94.05 61.8 224.79 151.05 135.56"/><polygon class="cls-3" points="61.79 224.8 61.79 224.8 61.79 224.8 61.79 224.8"/><path class="cls-4" d="M61.79,224.8l78.26,46.09c2.54,1.41,9.21,2.21,9.21,2.21s7.31-.66,10.06-2.18l78.83-47.25L214.38,85.47c-1.15-5.95-5.67-7.38-10-3.18L174.93,111.7Z"/><polygon class="cls-5" points="61.79 224.8 61.79 224.8 61.79 224.79 61.79 224.8"/><polygon class="cls-6" points="61.79 224.8 61.79 224.8 61.79 224.8 61.79 224.8"/><path class="cls-1" d="M130.47,94,99.92,32.43c-3-5.25-6.41-4.68-7.54,1.27L61.79,224.79h0Z"/><circle class="cls-6" cx="61.8" cy="224.79" r="0.01" transform="translate(-162.26 160.39) rotate(-58.59)"/></svg>
