<svg id="Layer_1" data-name="Layer 1" xmlns="http://www.w3.org/2000/svg" viewBox="0 0 300 300"><defs><style>.cls-1{fill:#f0f0f0;}</style></defs><title>icon-sentry</title><path class="cls-1" d="M260.74,216.55c5.35,9.29,5.87,19.06,1.42,26.78S249,255.49,238.33,255.49H218.16c.24-3.76.4-7.56.4-11.38,0-4.28-.2-8.51-.49-12.72h13.27a5.91,5.91,0,0,0,5.9-5.92,6,6,0,0,0-.71-2.82l-84.58-147a5.88,5.88,0,0,0-10.17-.14L128.34,98.83a181.69,181.69,0,0,1,72,132.55c.29,4.21.49,8.43.49,12.72,0,3.82-.16,7.61-.39,11.38H134.56c.36-3.75.57-7.54.57-11.38a114.89,114.89,0,0,0-.72-12.72,115.65,115.65,0,0,0-39.31-74.8l-9.25,16.07a97.43,97.43,0,0,1,30.3,58.74A97.84,97.84,0,0,1,117,244.1a99,99,0,0,1-.68,11.38H55.25c-10.71,0-19.39-4.43-23.83-12.16s-3.93-17.48,1.42-26.78L45.38,195a73.45,73.45,0,0,1,19.16,14.84l-7.47,12.73a6,6,0,0,0-.71,2.82,5.9,5.9,0,0,0,5.89,5.91H91.87a73.34,73.34,0,0,0-18.42-37.16,73.8,73.8,0,0,0-19.18-14.86l33.08-57.47A140,140,0,0,1,107.3,135.4a139.73,139.73,0,0,1,51.25,96h17.73a157.49,157.49,0,0,0-60.05-111.48,158.33,158.33,0,0,0-20-13.37l28.24-49.05c5.34-9.3,13.51-14.63,22.41-14.63s17.05,5.34,22.4,14.63Z"/></svg>