<svg id="Layer_1" data-name="Layer 1" xmlns="http://www.w3.org/2000/svg" viewBox="0 0 310.78 142.12"><defs><style>.cls-1{fill:#a7a9ac;}.cls-2{fill:#2cb3c4;}.cls-3{fill:#e44f26;}.cls-4{fill:#4e6374;}</style></defs><title>Artboard 8</title><polygon class="cls-1" points="62.78 6.28 100.84 6.28 129.19 135.02 91.13 134.05 62.78 6.28"/><path class="cls-2" d="M100.19,11c2.22-5-.47-9.15-6-9.15H71.94c-5.5,0-11.81,4.12-14,9.15L5.73,129.36c-2.22,5,.47,9.15,6,9.15H34c5.5,0,11.81-4.12,14-9.15Z"/><polygon class="cls-3" points="186.9 6.82 148.27 5.62 156.91 107.83 195.48 108.96 186.9 6.82"/><polygon class="cls-3" points="246.94 6.7 208.3 5.59 211.54 133.29 250.48 134.63 246.94 6.7"/><path class="cls-4" d="M246,10.78c2.44-4.93-.07-9-5.57-9H218.2c-5.5,0-12,4-14.43,9L157.83,103.7c-2.44,4.93.07,9,5.57,9h22.28c5.5,0,12-4,14.43-9Z"/><path class="cls-4" d="M306.74,11c2.22-5-.47-9.15-6-9.15H278.5c-5.5,0-11.81,4.12-14,9.15l-52.18,118.4c-2.22,5,.47,9.15,6,9.15h22.28c5.5,0,11.81-4.12,14-9.15Z"/><path class="cls-4" d="M186.19,11c2.22-5-.47-9.15-6-9.15H157.95c-5.5,0-11.81,4.12-14,9.15L91.74,129.36c-2.22,5,.47,9.15,6,9.15H120c5.5,0,11.81-4.12,14-9.15Z"/></svg>