<?xml version="1.0" encoding="utf-8"?>
<!-- Generator: Adobe Illustrator 20.0.0, SVG Export Plug-In . SVG Version: 6.00 Build 0)  -->
<svg version="1.1" id="Layer_1" xmlns="http://www.w3.org/2000/svg" xmlns:xlink="http://www.w3.org/1999/xlink" x="0px" y="0px"
	 viewBox="0 0 310.8 142.1" style="enable-background:new 0 0 310.8 142.1;" xml:space="preserve">
<style type="text/css">
	.st0{opacity:0.1;}
	.st1{opacity:5.000000e-02;}
</style>
<title>Artboard 8</title>
<g class="st0">
	<path d="M91.7,129.4l24.1-54.7l-15-68.3h0c0.3,1.4,0.1,3-0.6,4.7L76,65.9l15,67.7C90.9,132.3,91.1,130.9,91.7,129.4z"/>
	<path d="M157.8,103.7l31.8-64.3L187,7.6c0,1.1-0.2,2.2-0.8,3.4l-31.4,71.3l2.2,25.5l0,0C156.8,106.6,157.1,105.2,157.8,103.7z"/>
	<path d="M212.3,129.4l35.8-81.2l-1.1-41.5l0,0c0.1,1.2-0.2,2.6-0.9,4.1l-35.7,72.4l1.3,50.2l0,0
		C211.5,132.1,211.7,130.8,212.3,129.4z"/>
</g>
<path class="st1" d="M100.2,11c2.2-5-0.5-9.1-6-9.1H71.9c-5.5,0-11.8,4.1-14,9.1L5.7,129.4c-2.2,5,0.5,9.1,6,9.1H34
	c5.5,0,11.8-4.1,14-9.1L100.2,11z"/>
<path class="st1" d="M246,10.8c2.4-4.9-0.1-9-5.6-9h-22.2c-5.5,0-12,4-14.4,9l-45.9,92.9c-2.4,4.9,0.1,9,5.6,9h22.3
	c5.5,0,12-4,14.4-9L246,10.8z"/>
<path class="st1" d="M306.7,11c2.2-5-0.5-9.1-6-9.1h-22.2c-5.5,0-11.8,4.1-14,9.1l-52.2,118.4c-2.2,5,0.5,9.1,6,9.1h22.3
	c5.5,0,11.8-4.1,14-9.1L306.7,11z"/>
<path class="st1" d="M186.2,11c2.2-5-0.5-9.1-6-9.1h-22.2c-5.5,0-11.8,4.1-14,9.1L91.7,129.4c-2.2,5,0.5,9.1,6,9.1H120
	c5.5,0,11.8-4.1,14-9.1L186.2,11z"/>
</svg>
