<svg id="Layer_1" data-name="Layer 1" xmlns="http://www.w3.org/2000/svg" viewBox="0 0 254 56"><defs><style>.cls-1{fill:#e44f26;}.cls-2{fill:#2cb3c4;}</style></defs><title>eb-logo</title><path class="cls-1" d="M39.2,45.87V10.39h1.52V45.87Z"/><path class="cls-1" d="M66.93,30.65v8c0,6.77-7,7.64-10.18,7.64-3.36,0-10.56-1.08-10.56-7.8,0-7.47,9-8,12-8a35.93,35.93,0,0,1,7.2.76c0-6.28-2.17-9.81-9.32-9.81a25.78,25.78,0,0,0-7.15,1.08V21a25.52,25.52,0,0,1,7.2-1.08C64.06,19.92,66.93,23.77,66.93,30.65Zm-1.46,1.9a38.43,38.43,0,0,0-7.1-.7c-3.14,0-10.67.43-10.67,6.61,0,5.42,5.85,6.45,9,6.45,3,0,8.72-.92,8.72-6.28Z"/><path class="cls-1" d="M83.62,44.35v1.46a15.83,15.83,0,0,1-3.41.43c-1.84,0-6.45-.11-6.45-6.39V21.65H70V20.3h3.79v-7.2h1.52v7.2h8.23v1.35H75.27V39.8c0,4.55,3.09,5,5.09,5A10.26,10.26,0,0,0,83.62,44.35Z"/><path class="cls-1" d="M88.11,11.63h1.63v3.79H88.11Zm.05,8.67h1.52V45.87H88.17Z"/><path class="cls-1" d="M119.31,33.14c0,10.78-6.45,13.11-11.86,13.11s-12-2.33-12-13.11,6.55-13.27,12-13.27S119.31,22.25,119.31,33.14Zm-1.52,0c0-9.32-4.93-11.86-10.35-11.86S96.94,23.82,96.94,33.14,102,44.89,107.45,44.89,117.8,42.35,117.8,33.14Z"/><path class="cls-1" d="M145.7,29.18V45.87h-1.52V29.18c0-5-2.49-7.8-8.29-7.8a22.23,22.23,0,0,0-9.48,2.33V45.87H124.9v-23a23.86,23.86,0,0,1,11.16-3C142.12,19.87,145.7,22.74,145.7,29.18Z"/><path class="cls-2" d="M173.38,32.92c0,11.65-7,13.33-11.48,13.33-8.94,0-9.91-5.8-9.91-7.8V10.33h1.46V21.38a23.13,23.13,0,0,1,8.18-1.52C167.26,19.87,173.38,22.25,173.38,32.92Zm-1.52,0c0-9.1-4.61-11.65-10.24-11.65a21.8,21.8,0,0,0-8.18,1.63V38.55c0,2.22,1.57,6.34,8.45,6.34C166,44.89,171.86,43.43,171.86,32.92Z"/><path class="cls-2" d="M198.68,30.65v8c0,6.77-7,7.64-10.18,7.64-3.36,0-10.56-1.08-10.56-7.8,0-7.47,9-8,12-8a35.94,35.94,0,0,1,7.21.76c0-6.28-2.17-9.81-9.32-9.81a25.78,25.78,0,0,0-7.15,1.08V21a25.51,25.51,0,0,1,7.2-1.08C195.81,19.92,198.68,23.77,198.68,30.65Zm-1.46,1.9a38.43,38.43,0,0,0-7.1-.7c-3.14,0-10.67.43-10.67,6.61,0,5.42,5.85,6.45,9,6.45,3,0,8.72-.92,8.72-6.28Z"/><path class="cls-2" d="M220.67,39.26c0,3.79-2.71,7-9.1,7a21.62,21.62,0,0,1-8.4-1.63V43a21,21,0,0,0,8.34,1.73c5.15,0,7.64-2.33,7.64-5.53,0-8.4-15.49-3.52-15.49-12.68,0-3.63,2.49-6.72,8.29-6.72a20.84,20.84,0,0,1,7.26,1.41v1.52a19.68,19.68,0,0,0-7.15-1.46c-4.17,0-6.93,1.9-6.93,5.25C205.13,34.11,220.67,29.51,220.67,39.26Z"/><path class="cls-2" d="M247.43,33c-.05.65-.05.81-.05.92H226.74a3.6,3.6,0,0,0,.22,1.19c.38,7.2,5,9.7,10.46,9.7a18.88,18.88,0,0,0,8.23-1.68v1.57a22.22,22.22,0,0,1-8.34,1.57c-6,0-12.13-2.82-12.13-12.84,0-5.15,1.95-13.49,11.43-13.49C246.89,19.92,247.43,30.59,247.43,33Zm-20.69-.43h19.12v-.6c-.11-2.82-1.19-10.62-9.32-10.62C229.55,21.33,226.9,26.42,226.74,32.54Z"/><path class="cls-1" d="M23.05,21.33c8.13,0,9.21,7.8,9.32,10.62v.6H17.54L17,33.9H33.89c0-.11,0-.27.05-.92,0-2.38-.54-13.05-10.83-13.05H23l-.62,1.43C22.59,21.35,22.82,21.33,23.05,21.33Z"/><path class="cls-1" d="M23.81,46.25a22.22,22.22,0,0,0,8.34-1.57V43.1a18.88,18.88,0,0,1-8.23,1.68c-4.11,0-7.73-1.4-9.43-5.15l-.8,1.85C16,45,19.91,46.25,23.81,46.25Z"/><polygon class="cls-2" points="29.21 5.5 26.72 5.5 6.84 51.7 9.28 51.7 29.21 5.5"/></svg>