<svg id="Layer_1" data-name="Layer 1" xmlns="http://www.w3.org/2000/svg" viewBox="0 0 200 200"><defs><style>.cls-1{fill:#191717;}</style></defs><title>behance</title><path class="cls-1" d="M82.23,90.47q2.67-1.63,2.67-5.79c0-3.06-1.18-5.09-3.54-6.07a24.87,24.87,0,0,0-7.77-1H61.35V92.1H75.27A13.2,13.2,0,0,0,82.23,90.47Z"/><path class="cls-1" d="M135.86,94.23a10.75,10.75,0,0,0-7.31-2.55,9.78,9.78,0,0,0-7.36,2.7,12.71,12.71,0,0,0-3.29,7.3h21.24Q138.81,96.77,135.86,94.23Z"/><path class="cls-1" d="M82.06,104.11A16.5,16.5,0,0,0,75.47,103H61.35v17.54H75.26a15.46,15.46,0,0,0,6.67-1.15c2.88-1.43,4.32-4.17,4.32-8.22C86.24,107.75,84.85,105.38,82.06,104.11Z"/><path class="cls-1" d="M99.49,2.79a96.86,96.86,0,1,0,96.86,96.86A96.86,96.86,0,0,0,99.49,2.79ZM115.2,68.88h26.51v6.58H115.2Zm-18,53.73a18.21,18.21,0,0,1-4.66,5.17,18,18,0,0,1-7.43,3.31,45.93,45.93,0,0,1-9.29.89H46.16V66.15H78c8,.13,13.69,2.45,17,7a16.75,16.75,0,0,1,3,10.05c0,4-1,7.24-3,9.69a15.52,15.52,0,0,1-5,3.75,14.62,14.62,0,0,1,7.59,5.82,17.41,17.41,0,0,1,2.57,9.64A19.2,19.2,0,0,1,97.19,122.61Zm54.76-12.79H117.62q.28,7.11,4.93,9.95a12.41,12.41,0,0,0,6.8,1.77,9.58,9.58,0,0,0,9.37-5.4H151.3c-.33,2.8-1.84,5.64-4.57,8.52q-6.33,6.88-17.73,6.88a25.74,25.74,0,0,1-16.61-5.8q-7.18-5.82-7.19-18.89,0-12.27,6.49-18.8c4.35-4.37,10-6.54,16.87-6.54a26.88,26.88,0,0,1,11.09,2.21,19.1,19.1,0,0,1,8.14,7,23.27,23.27,0,0,1,3.76,9.75A61.92,61.92,0,0,1,151.95,109.82Z"/></svg>