<svg id="Layer_1" data-name="Layer 1" xmlns="http://www.w3.org/2000/svg" viewBox="0 0 200 200"><defs><style>.cls-1{fill:#191717;fill-rule:evenodd;}</style></defs><title>codepen</title><polygon class="cls-1" points="75.9 104.39 61.05 114.33 94.31 136.5 94.31 116.7 75.9 104.39 75.9 104.39"/><polygon class="cls-1" points="57.65 92.18 57.65 106.39 68.27 99.28 57.65 92.18"/><polygon class="cls-1" points="94.31 81.87 94.31 62.07 61.05 84.24 75.9 94.18 94.31 81.87"/><polygon class="cls-1" points="136.06 84.24 102.8 62.07 102.8 81.87 121.2 94.18 136.06 84.24"/><polygon class="cls-1" points="98.55 89.24 83.54 99.28 98.55 109.33 113.56 99.28 98.55 89.24"/><path class="cls-1" d="M99.49,2.79a96.86,96.86,0,1,0,96.86,96.86A96.86,96.86,0,0,0,99.49,2.79Zm48.45,111.54a4.24,4.24,0,0,1,0,.55c0,.06,0,.12,0,.18s0,.24-.07.36l-.07.21c0,.1-.07.21-.11.31l-.09.21c0,.09-.09.19-.14.28l-.12.19-.18.26-.14.18-.21.23-.17.16-.24.2-.19.15-.07.05L100.91,148a4.28,4.28,0,0,1-2.35.71A4.19,4.19,0,0,1,96.2,148L51.06,117.85,51,117.8c-.05-.05-.12-.09-.19-.15l-.24-.2a1.05,1.05,0,0,1-.17-.16,2.25,2.25,0,0,1-.21-.23l-.15-.18a2.08,2.08,0,0,1-.19-.25l-.12-.19-.15-.28-.09-.2c0-.1-.07-.2-.11-.31l-.07-.21a2.53,2.53,0,0,1-.08-.36c0-.06,0-.12,0-.18a3.85,3.85,0,0,1,0-.55V84.23a4.25,4.25,0,0,1,0-.55c0-.06,0-.12,0-.18s0-.24.07-.36l.06-.2c0-.1.07-.21.11-.31l.09-.21c0-.09.09-.19.14-.28l.12-.2.18-.26.15-.19.21-.23.17-.17.24-.2.19-.14.07-.05L96.2,50.61a4.24,4.24,0,0,1,4.71,0L146,80.71l.07.05.19.14.24.2.17.17.21.23.15.18.18.26.12.2c.05.09.1.19.15.28l.09.21c0,.1.08.2.11.31s0,.14.07.21.05.24.07.36h0c0,.07,0,.12,0,.18a4.49,4.49,0,0,1,0,.55Z"/><polygon class="cls-1" points="102.8 116.7 102.8 136.5 136.06 114.33 121.2 104.39 102.8 116.7"/><polygon class="cls-1" points="139.45 106.39 139.45 92.18 128.83 99.28 139.45 106.39"/></svg>