<svg id="Layer_1" data-name="Layer 1" xmlns="http://www.w3.org/2000/svg" viewBox="0 0 200 200"><defs><style>.cls-1{fill:#191717;fill-rule:evenodd;}</style></defs><title>github</title><path class="cls-1" d="M99.49,2.79A96.87,96.87,0,0,0,80.2,194.59V178c0-1.8-.07-6.57-.1-12.89C59,169.65,54.56,154.91,54.56,154.91c-3.45-8.76-8.42-11.09-8.42-11.09-6.88-4.7.52-4.61.52-4.61,7.61.54,11.61,7.81,11.61,7.81,6.76,11.58,17.74,8.24,22.06,6.3.69-4.9,2.65-8.24,4.81-10.13-16.83-1.91-34.53-8.42-34.53-37.46a29.3,29.3,0,0,1,7.8-20.34c-.78-1.92-3.38-9.62.74-20.06,0,0,6.36-2,20.85,7.77a71.85,71.85,0,0,1,38,0c14.47-9.81,20.83-7.77,20.83-7.77,4.14,10.44,1.53,18.14.75,20.06a29.25,29.25,0,0,1,7.79,20.34c0,29.12-17.72,35.53-34.61,37.41,2.72,2.34,5.15,7,5.15,14,0,10.13-.09,18.31-.09,20.8v16.82a96.87,96.87,0,0,0-18.29-192Z"/></svg>