<svg id="Layer_1" data-name="Layer 1" xmlns="http://www.w3.org/2000/svg" viewBox="0 0 200 200"><defs><style>.cls-1{fill:#191717;fill-rule:evenodd;}</style></defs><title>linkedin</title><path class="cls-1" d="M99.49,2.79a96.86,96.86,0,1,0,96.86,96.86A96.86,96.86,0,0,0,99.49,2.79ZM77.6,132.26H62v-50H77.6ZM69.82,75.45a9,9,0,1,1,9-9A9,9,0,0,1,69.82,75.45Zm66,56.82H120.25V108c0-5.8-.1-13.25-8.07-13.25s-9.32,6.32-9.32,12.84v24.72H87.34v-50h14.89v6.83h.21c2.07-3.93,7.14-8.07,14.7-8.07,15.73,0,18.64,10.35,18.64,23.81Z"/></svg>