<svg id="Layer_1" data-name="Layer 1" xmlns="http://www.w3.org/2000/svg" viewBox="0 0 200 200"><defs><style>.cls-1{fill:#191717;fill-rule:evenodd;}</style></defs><title>npm</title><polygon class="cls-1" points="64.04 90.62 70.34 90.62 70.34 109.29 76.63 109.29 76.63 84.34 51.71 84.34 51.71 109.29 64.04 109.29 64.04 90.62"/><polygon class="cls-1" points="126.57 90.62 132.87 90.62 132.87 109.29 139.17 109.29 139.17 90.62 145.46 90.62 145.46 109.29 151.76 109.29 151.76 84.34 114.2 84.34 114.2 109.29 126.57 109.29 126.57 90.62"/><path class="cls-1" d="M99.49,2.79a96.86,96.86,0,1,0,96.86,96.86A96.86,96.86,0,0,0,99.49,2.79Zm58.35,112.82H101.6v6.28h-25v-6.28H45.37V78H157.84Z"/><path class="cls-1" d="M83,84.34v31.27H95.52v-6.32H107.9V84.34ZM101.6,103H95.52V90.62h6.08Z"/></svg>